<svg xmlns="http://www.w3.org/2000/svg" width="32" height="32" viewBox="0 0 24 24"><metadata><rdf:RDF xmlns:rdf="http://www.w3.org/1999/02/22-rdf-syntax-ns#" xmlns:dc="http://purl.org/dc/elements/1.1/"><rdf:Description><dc:creator>RealFaviconGenerator</dc:creator><dc:source>https://realfavicongenerator.net</dc:source></rdf:Description></rdf:RDF></metadata><g fill="none" stroke="currentColor" stroke-linecap="round" stroke-linejoin="round" stroke-width="2"><path d="M12 18V5m3 8a4.17 4.17 0 0 1-3-4a4.17 4.17 0 0 1-3 4m8.598-6.5A3 3 0 1 0 12 5a3 3 0 1 0-5.598 1.5"></path><path d="M17.997 5.125a4 4 0 0 1 2.526 5.77"></path><path d="M18 18a4 4 0 0 0 2-7.464"></path><path d="M19.967 17.483A4 4 0 1 1 12 18a4 4 0 1 1-7.967-.517"></path><path d="M6 18a4 4 0 0 1-2-7.464"></path><path d="M6.003 5.125a4 4 0 0 0-2.526 5.77"></path></g><style>@media (prefers-color-scheme: light) { :root { filter: contrast(1) brightness(0.1); } }
@media (prefers-color-scheme: dark) { :root { filter: contrast(0.3846153846153846) brightness(4.5); } }
</style></svg>